<?xml version="1.0" standalone="no"?>
<!DOCTYPE svg PUBLIC "-//W3C//DTD SVG 20010904//EN"
 "http://www.w3.org/TR/2001/REC-SVG-20010904/DTD/svg10.dtd">
<svg version="1.0" xmlns="http://www.w3.org/2000/svg"
 width="400.000000pt" height="400.000000pt" viewBox="0 0 400.000000 400.000000"
 preserveAspectRatio="xMidYMid meet">
<metadata>
Created by potrace 1.14, written by Peter Selinger 2001-2017
</metadata>
<g transform="translate(0.000000,400.000000) scale(0.100000,-0.100000)"
fill="#000000" stroke="none">
<path d="M1990 2882 c-13 -4 -159 -86 -304 -172 -23 -14 -117 -68 -209 -120
-91 -52 -167 -100 -167 -107 0 -6 33 -28 74 -48 l73 -37 144 83 c79 45 162 93
184 107 73 46 208 122 216 122 5 0 131 -70 281 -156 l272 -156 72 36 c40 20
75 40 78 45 3 4 -72 52 -167 106 -95 55 -242 140 -327 190 -175 102 -199 114
-220 107z"/>
<path d="M1755 2431 c-132 -76 -276 -160 -320 -187 l-80 -50 -3 -129 c-1 -77
2 -140 8 -156 10 -24 103 -84 315 -205 28 -15 52 -32 53 -36 2 -4 7 -8 12 -8
4 0 40 -20 80 -44 108 -67 202 -81 289 -43 20 9 229 132 351 207 8 5 50 29 92
54 108 64 108 64 108 226 l0 135 -62 35 c-35 18 -90 50 -123 70 -68 41 -473
270 -477 270 -2 0 -111 -63 -243 -139z m435 -150 c41 -23 79 -46 83 -50 10
-10 -67 -64 -152 -107 -74 -39 -161 -44 -222 -14 -69 34 -169 104 -166 115 2
5 62 45 132 87 l129 77 61 -33 c33 -19 94 -53 135 -75z m278 -204 l-3 -81 -70
-41 c-38 -23 -128 -76 -200 -119 -110 -66 -138 -78 -185 -82 -35 -3 -63 0 -77
8 -12 7 -77 45 -143 83 -66 39 -148 88 -183 110 l-62 40 -3 76 c-4 103 7 112
83 68 38 -24 55 -40 55 -54 0 -12 6 -28 13 -37 26 -33 260 -168 291 -168 33 0
107 32 205 89 121 70 141 86 141 117 0 17 15 32 57 58 75 47 85 40 81 -67z"/>
<path d="M1070 2348 c0 -2 -1 -156 -3 -343 -2 -296 0 -345 14 -375 16 -35 85
-110 101 -110 4 0 29 -13 55 -28 27 -16 80 -47 118 -69 39 -22 136 -79 216
-126 80 -48 154 -90 165 -93 10 -4 21 -10 24 -14 3 -3 25 -18 50 -32 56 -32
145 -58 199 -58 46 0 142 29 193 59 83 47 209 122 273 161 39 24 86 52 105 62
266 149 323 188 346 243 10 24 13 117 15 374 1 188 -1 345 -5 348 -3 3 -14 -1
-23 -9 -10 -9 -42 -28 -70 -42 l-53 -26 0 -260 0 -259 -35 -28 c-32 -25 -358
-226 -535 -330 -84 -48 -155 -73 -212 -73 -54 0 -146 33 -220 78 -35 21 -155
92 -268 156 -206 118 -264 156 -287 184 -10 12 -13 83 -13 279 0 209 -3 263
-13 263 -7 0 -37 16 -67 35 -49 31 -70 40 -70 33z"/>
</g>
</svg>
